<mxfile host="app.diagrams.net" modified="2023-08-15T03:34:56.830Z" agent="Mozilla/5.0 (Macintosh; Intel Mac OS X 10_15_7) AppleWebKit/537.36 (KHTML, like Gecko) Chrome/115.0.0.0 Safari/537.36" etag="4jFzth3l4gWBjLvD32I0" version="21.6.8" type="github">
  <diagram name="第 1 页" id="98uMh7Zt4IKIZvyn-bi0">
    <mxGraphModel dx="2074" dy="1149" grid="1" gridSize="10" guides="1" tooltips="1" connect="1" arrows="1" fold="1" page="1" pageScale="1" pageWidth="827" pageHeight="1169" math="0" shadow="0">
      <root>
        <mxCell id="0" />
        <mxCell id="1" parent="0" />
        <mxCell id="3yx94PxHGXsUfjOWZWEW-3" value="searchInshopBuildAction&#xa;├── poiCategoryProxyAction&#xa;├── batchActivitySegmentIdListProxyAction&#xa;├── inshopQueryProductIdsProxyAction&#xa;│   ├── poiCategoryProxyAction&#xa;│   ├── preInshopSearchSinglePoiSpuListAttr4ProxyAction&#xa;│   │   ├── poiCategoryProxyAction&#xa;│   │   └── wmCPoiBaseOfflineProxyAction&#xa;│   └── neighborhoodWithWholeCityProxyAction&#xa;├── promotionLabelProxyAction&#xa;│   ├── inshopQueryProductIdsProxyAction&#xa;│   └── singlePoiSkuListAttrProxyAction&#xa;├── singlePoiSpuListAttr4InshopSearchProxyAction&#xa;│   ├── poiCategoryProxyAction&#xa;│   ├── wmCPoiBaseOfflineProxyAction&#xa;│   └── inshopQueryProductIdsProxyAction&#xa;├── promotionInfoProxyAction&#xa;├── poiActivityCollectionProxyAction&#xa;│   ├── buildSkuListWithSpuServiceAction&#xa;│   │   ├── singlePoiSpuListAttr4InshopSearchProxyAction&#xa;│   │   └── recommendSearchProductProxyAction&#xa;│   └── memberAndLevelInfoProxyAction&#xa;├── skusActivityCollectionProxyAction&#xa;│   ├── buildSkuListWithSpuServiceAction&#xa;│   │   ├── singlePoiSpuListAttr4InshopSearchProxyAction&#xa;│   │   └── recommendSearchProductProxyAction&#xa;│   └── memberAndLevelInfoProxyAction&#xa;├── handPriceActivityCollectionProxyAction&#xa;│   ├── buildSkuListWithSpuServiceAction&#xa;│   │   ├── singlePoiSpuListAttr4InshopSearchProxyAction&#xa;│   │   └── recommendSearchProductProxyAction&#xa;│   └── memberAndLevelInfoProxyAction&#xa;├── userPoiGoodsCouponForSkuProxyAction&#xa;│   └── batchActivitySegmentIdListProxyAction&#xa;├── singlePoiSkuListAttrProxyAction&#xa;│   ├── wmCPoiBaseOfflineProxyAction&#xa;│   └── recommendSearchProductProxyAction&#xa;├── gatherTeamLikeSkuIdsServiceAction&#xa;│   └── getTeamLikeActivityByPoiProxyAction&#xa;├── saleCountByWmPoiIdsProxyAction&#xa;├── answerSurveyProxyAction&#xa;│   ├── poiCategoryProxyAction&#xa;│   └── flattedBindAggregateByMtUserIdProxyAction&#xa;├── recommendSearchProductProxyAction&#xa;│   └── wmCPoiBaseOfflineProxyAction&#xa;├── flashSaleActivitySegmentGroupDataSearchProxyAction&#xa;│   └── batchActivitySegmentIdListProxyAction&#xa;├── recommendLabelListProxyAction&#xa;│   ├── wmCPoiBaseOfflineProxyAction&#xa;│   └── inshopQueryProductIdsProxyAction&#xa;├── drugStandardProductMapBuildServiceAction&#xa;│   ├── singlePoiSpuListAttr4InshopSearchProxyAction&#xa;│   └── drugStandardProductInfoSearchProxyAction&#xa;│       └── drugSkuFilterServiceAction&#xa;│           ├── wmCPoiBaseOfflineProxyAction&#xa;│           ├── handPriceActivityCollectionProxyAction&#xa;│           │   ├── buildSkuListWithSpuServiceAction&#xa;│           │   │   ├── singlePoiSpuListAttr4InshopSearchProxyAction&#xa;│           │   │   └── recommendSearchProductProxyAction&#xa;│           │   └── memberAndLevelInfoProxyAction&#xa;│           └── singlePoiSpuListAttr4InshopSearchProxyAction&#xa;├── productListLabelCouponProxyAction&#xa;│   ├── inshopQueryProductIdsProxyAction&#xa;│   ├── wmCPoiBaseOfflineProxyAction&#xa;│   └── buildSkuListWithSpuServiceAction&#xa;│       ├── singlePoiSpuListAttr4InshopSearchProxyAction&#xa;│       └── recommendSearchProductProxyAction&#xa;├── kanoProxyAction&#xa;│   ├── inshopQueryProductIdsProxyAction&#xa;│   ├── wmCPoiBaseOfflineProxyAction&#xa;│   ├── singlePoiSkuListAttrProxyAction&#xa;│   └── singlePoiSpuListAttr4InshopSearchProxyAction&#xa;├── wmCPoiBaseOfflineProxyAction&#xa;├── getTenantListProxyAction&#xa;│   ├── wmCPoiBaseOfflineProxyAction&#xa;│   └── getTenantIdProxyAction&#xa;│       └── wmCPoiBaseOfflineProxyAction&#xa;├── poiListAttrServiceAction&#xa;│   └── poiListAttrProxyAction&#xa;│       └── inshopQueryProductIdsProxyAction&#xa;├── poiListProductParamProxyAction&#xa;│   └── inshopQueryProductIdsProxyAction&#xa;├── wmActivityOrderProxyAction&#xa;│   ├── poiListAttrServiceAction&#xa;│   │   └── poiListAttrProxyAction&#xa;│   │       └── inshopQueryProductIdsProxyAction&#xa;│   └── poiListProductParamProxyAction&#xa;│       └── inshopQueryProductIdsProxyAction&#xa;├── dynamicKanoLabelProxyAction&#xa;│   └── singlePoiSpuListAttr4InshopSearchProxyAction&#xa;├── searchRocksServiceAction&#xa;│   ├── poiCategoryProxyAction&#xa;│   └── inshopQueryProductIdsProxyAction&#xa;└── singlePoiSpuListPriceProxyAction&#xa;    ├── poiCategoryProxyAction&#xa;    ├── wmCPoiBaseOfflineProxyAction&#xa;    └── inshopQueryProductIdsProxyAction" style="text;whiteSpace=wrap;" vertex="1" parent="1">
          <mxGeometry x="230" y="80" width="420" height="1420" as="geometry" />
        </mxCell>
      </root>
    </mxGraphModel>
  </diagram>
</mxfile>
